<svg width="15" height="15" viewBox="0 0 15 15" fill="none" xmlns="http://www.w3.org/2000/svg">
<path d="M10 3.33333C10 4.87543 8.68012 6.16667 7 6.16667C5.31988 6.16667 4 4.87543 4 3.33333C4 1.79123 5.31988 0.5 7 0.5C8.68012 0.5 10 1.79123 10 3.33333Z" fill="#303134" stroke="#8C8C8C"/>
<mask id="path-2-inside-1_2962_3193" fill="white">
<path fill-rule="evenodd" clip-rule="evenodd" d="M11.9497 9.6967C13.2625 11.1032 14 13.0109 14 15H7L0 15C0 13.0109 0.737498 11.1032 2.05025 9.6967C3.36301 8.29018 5.14349 7.5 7 7.5C8.85652 7.5 10.637 8.29018 11.9497 9.6967Z"/>
</mask>
<path fill-rule="evenodd" clip-rule="evenodd" d="M11.9497 9.6967C13.2625 11.1032 14 13.0109 14 15H7L0 15C0 13.0109 0.737498 11.1032 2.05025 9.6967C3.36301 8.29018 5.14349 7.5 7 7.5C8.85652 7.5 10.637 8.29018 11.9497 9.6967Z" fill="#303134"/>
<path d="M14 15V16H15V15H14ZM11.9497 9.6967L12.6808 9.01438L12.6808 9.01438L11.9497 9.6967ZM7 15L7 16H7V15ZM0 15H-1V16L-1.36239e-07 16L0 15ZM2.05025 9.6967L1.3192 9.01438L2.05025 9.6967ZM15 15C15 12.7671 14.1727 10.6129 12.6808 9.01438L11.2187 10.379C12.3523 11.5936 13 13.2547 13 15H15ZM7 16H14V14H7V16ZM-1.36239e-07 16L7 16L7 14L1.36239e-07 14L-1.36239e-07 16ZM1.3192 9.01438C-0.172748 10.6129 -1 12.7671 -1 15H1C1 13.2547 1.64774 11.5935 2.78131 10.379L1.3192 9.01438ZM7 6.5C4.85513 6.5 2.81332 7.41354 1.3192 9.01438L2.78131 10.379C3.9127 9.16682 5.43184 8.5 7 8.5V6.5ZM12.6808 9.01438C11.1867 7.41354 9.14487 6.5 7 6.5V8.5C8.56816 8.5 10.0873 9.16682 11.2187 10.379L12.6808 9.01438Z" fill="#8C8C8C" mask="url(#path-2-inside-1_2962_3193)"/>
<path d="M12.25 5V8.33333" stroke="#8C8C8C" stroke-linecap="round"/>
<path d="M10.5 6.66675H14" stroke="#8C8C8C" stroke-linecap="round"/>
</svg>
