<svg width="30" height="30" viewBox="0 0 30 30" fill="none" xmlns="http://www.w3.org/2000/svg">
<mask id="path-1-inside-1_2899_3168" fill="white">
<path fill-rule="evenodd" clip-rule="evenodd" d="M12 3C12 1.34315 13.3431 0 15 0C16.6569 0 18 1.34315 18 3V4.93482C18.7239 5.15025 19.415 5.44163 20.0642 5.79973L21.4926 4.37132C22.6642 3.19975 24.5637 3.19975 25.7352 4.37132C26.9068 5.54289 26.9068 7.44239 25.7352 8.61396L24.2752 10.074C24.5992 10.6828 24.865 11.3273 25.0652 12H27C28.6569 12 30 13.3431 30 15C30 16.6569 28.6569 18 27 18H25.0652C24.8574 18.6983 24.5788 19.3662 24.2379 19.9953L25.7353 21.4926C26.9069 22.6642 26.9069 24.5637 25.7353 25.7352C24.5637 26.9068 22.6642 26.9068 21.4926 25.7352L19.9953 24.2379C19.3662 24.5788 18.6983 24.8574 18 25.0652V27C18 28.6569 16.6569 30 15 30C13.3431 30 12 28.6569 12 27V25.0652C11.3273 24.865 10.6829 24.5992 10.0742 24.2752L8.61412 25.7353C7.44254 26.9069 5.54305 26.9069 4.37148 25.7353C3.1999 24.5637 3.1999 22.6642 4.37148 21.4926L5.79981 20.0643C5.44167 19.4151 5.15026 18.7239 4.93482 18H3C1.34315 18 0 16.6569 0 15C0 13.3431 1.34315 12 3 12H4.93482C5.14265 11.3017 5.42117 10.6338 5.76208 10.0047L4.37132 8.61393C3.19975 7.44235 3.19975 5.54286 4.37132 4.37129C5.54289 3.19971 7.44239 3.19971 8.61396 4.37129L10.0047 5.76206C10.6338 5.42115 11.3017 5.14264 12 4.93482V3ZM15 20.25C17.8995 20.25 20.25 17.8995 20.25 15C20.25 12.1005 17.8995 9.75 15 9.75C12.1005 9.75 9.75 12.1005 9.75 15C9.75 17.8995 12.1005 20.25 15 20.25Z"/>
</mask>
<path fill-rule="evenodd" clip-rule="evenodd" d="M12 3C12 1.34315 13.3431 0 15 0C16.6569 0 18 1.34315 18 3V4.93482C18.7239 5.15025 19.415 5.44163 20.0642 5.79973L21.4926 4.37132C22.6642 3.19975 24.5637 3.19975 25.7352 4.37132C26.9068 5.54289 26.9068 7.44239 25.7352 8.61396L24.2752 10.074C24.5992 10.6828 24.865 11.3273 25.0652 12H27C28.6569 12 30 13.3431 30 15C30 16.6569 28.6569 18 27 18H25.0652C24.8574 18.6983 24.5788 19.3662 24.2379 19.9953L25.7353 21.4926C26.9069 22.6642 26.9069 24.5637 25.7353 25.7352C24.5637 26.9068 22.6642 26.9068 21.4926 25.7352L19.9953 24.2379C19.3662 24.5788 18.6983 24.8574 18 25.0652V27C18 28.6569 16.6569 30 15 30C13.3431 30 12 28.6569 12 27V25.0652C11.3273 24.865 10.6829 24.5992 10.0742 24.2752L8.61412 25.7353C7.44254 26.9069 5.54305 26.9069 4.37148 25.7353C3.1999 24.5637 3.1999 22.6642 4.37148 21.4926L5.79981 20.0643C5.44167 19.4151 5.15026 18.7239 4.93482 18H3C1.34315 18 0 16.6569 0 15C0 13.3431 1.34315 12 3 12H4.93482C5.14265 11.3017 5.42117 10.6338 5.76208 10.0047L4.37132 8.61393C3.19975 7.44235 3.19975 5.54286 4.37132 4.37129C5.54289 3.19971 7.44239 3.19971 8.61396 4.37129L10.0047 5.76206C10.6338 5.42115 11.3017 5.14264 12 4.93482V3ZM15 20.25C17.8995 20.25 20.25 17.8995 20.25 15C20.25 12.1005 17.8995 9.75 15 9.75C12.1005 9.75 9.75 12.1005 9.75 15C9.75 17.8995 12.1005 20.25 15 20.25Z" fill="#303134"/>
<path d="M18 4.93482H17V5.68055L17.7148 5.89327L18 4.93482ZM20.0642 5.79973L19.5812 6.67535L20.2396 7.03854L20.7713 6.50684L20.0642 5.79973ZM21.4926 4.37132L20.7855 3.66421L20.7855 3.66421L21.4926 4.37132ZM25.7352 4.37132L26.4423 3.66421L26.4423 3.66421L25.7352 4.37132ZM25.7352 8.61396L26.4423 9.32107L26.4423 9.32107L25.7352 8.61396ZM24.2752 10.074L23.5681 9.36692L23.0446 9.89036L23.3924 10.5438L24.2752 10.074ZM25.0652 12L24.1067 12.2852L24.3194 13H25.0652V12ZM25.0652 18V17H24.3195L24.1067 17.7147L25.0652 18ZM24.2379 19.9953L23.3587 19.5188L23.0033 20.1748L23.5308 20.7024L24.2379 19.9953ZM25.7353 21.4926L25.0282 22.1997L25.0282 22.1997L25.7353 21.4926ZM25.7353 25.7352L25.0282 25.0281L25.0282 25.0281L25.7353 25.7352ZM19.9953 24.2379L20.7024 23.5308L20.1749 23.0032L19.5189 23.3587L19.9953 24.2379ZM18 25.0652L17.7148 24.1067L17 24.3194V25.0652H18ZM12 25.0652H13V24.3194L12.2852 24.1067L12 25.0652ZM10.0742 24.2752L10.544 23.3925L9.89049 23.0447L9.36706 23.5681L10.0742 24.2752ZM8.61412 25.7353L7.90701 25.0282L7.90701 25.0282L8.61412 25.7353ZM4.37148 25.7353L5.07858 25.0282L5.07858 25.0282L4.37148 25.7353ZM4.37148 21.4926L5.07858 22.1997L5.07858 22.1997L4.37148 21.4926ZM5.79981 20.0643L6.50691 20.7714L7.03862 20.2397L6.67542 19.5813L5.79981 20.0643ZM4.93482 18L5.89327 17.7148L5.68055 17H4.93482V18ZM4.93482 12V13H5.68055L5.89327 12.2852L4.93482 12ZM5.76208 10.0047L6.64129 10.4811L6.99675 9.82514L6.46919 9.29758L5.76208 10.0047ZM4.37132 8.61393L3.66421 9.32103L3.66421 9.32103L4.37132 8.61393ZM4.37132 4.37129L3.66421 3.66418L3.66421 3.66418L4.37132 4.37129ZM8.61396 4.37129L7.90685 5.07839L7.90685 5.07839L8.61396 4.37129ZM10.0047 5.76206L9.29762 6.46916L9.82518 6.99672L10.4812 6.64127L10.0047 5.76206ZM12 4.93482L12.2852 5.89327L13 5.68055V4.93482H12ZM15 -1C12.7909 -1 11 0.790861 11 3H13C13 1.89543 13.8954 1 15 1V-1ZM19 3C19 0.790861 17.2091 -1 15 -1V1C16.1046 1 17 1.89543 17 3H19ZM19 4.93482V3H17V4.93482H19ZM20.5472 4.92411C19.836 4.53183 19.0787 4.21249 18.2852 3.97636L17.7148 5.89327C18.3691 6.088 18.994 6.35144 19.5812 6.67535L20.5472 4.92411ZM20.7855 3.66421L19.3571 5.09262L20.7713 6.50684L22.1997 5.07843L20.7855 3.66421ZM26.4423 3.66421C24.8802 2.10212 22.3476 2.10212 20.7855 3.66421L22.1997 5.07843C22.9807 4.29738 24.2471 4.29738 25.0281 5.07843L26.4423 3.66421ZM26.4423 9.32107C28.0044 7.75897 28.0044 5.22631 26.4423 3.66421L25.0281 5.07843C25.8092 5.85948 25.8092 7.12581 25.0281 7.90685L26.4423 9.32107ZM24.9823 10.7811L26.4423 9.32107L25.0281 7.90685L23.5681 9.36692L24.9823 10.7811ZM26.0236 11.7148C25.8042 10.9774 25.5129 10.2712 25.1579 9.60422L23.3924 10.5438C23.6854 11.0945 23.9258 11.6772 24.1067 12.2852L26.0236 11.7148ZM27 11H25.0652V13H27V11ZM31 15C31 12.7909 29.2091 11 27 11V13C28.1046 13 29 13.8954 29 15H31ZM27 19C29.2091 19 31 17.2091 31 15H29C29 16.1046 28.1046 17 27 17V19ZM25.0652 19H27V17H25.0652V19ZM25.1172 20.4717C25.4906 19.7825 25.7958 19.0506 26.0236 18.2853L24.1067 17.7147C23.9189 18.346 23.6671 18.9498 23.3587 19.5188L25.1172 20.4717ZM26.4424 20.7855L24.9451 19.2882L23.5308 20.7024L25.0282 22.1997L26.4424 20.7855ZM26.4424 26.4424C28.0045 24.8803 28.0045 22.3476 26.4424 20.7855L25.0282 22.1997C25.8092 22.9808 25.8092 24.2471 25.0282 25.0281L26.4424 26.4424ZM20.7855 26.4424C22.3476 28.0044 24.8803 28.0045 26.4424 26.4424L25.0282 25.0281C24.2471 25.8092 22.9808 25.8092 22.1997 25.0281L20.7855 26.4424ZM19.2882 24.945L20.7855 26.4424L22.1997 25.0281L20.7024 23.5308L19.2882 24.945ZM18.2852 26.0236C19.0507 25.7958 19.7825 25.4906 20.4717 25.1171L19.5189 23.3587C18.9498 23.6671 18.346 23.9189 17.7148 24.1067L18.2852 26.0236ZM19 27V25.0652H17V27H19ZM15 31C17.2091 31 19 29.2091 19 27H17C17 28.1046 16.1046 29 15 29V31ZM11 27C11 29.2091 12.7909 31 15 31V29C13.8954 29 13 28.1046 13 27H11ZM11 25.0652V27H13V25.0652H11ZM9.60437 25.158C10.2713 25.5129 10.9775 25.8042 11.7148 26.0236L12.2852 24.1067C11.6772 23.9258 11.0946 23.6855 10.544 23.3925L9.60437 25.158ZM9.32122 26.4424L10.7813 24.9823L9.36706 23.5681L7.90701 25.0282L9.32122 26.4424ZM3.66437 26.4424C5.22647 28.0045 7.75913 28.0045 9.32122 26.4424L7.90701 25.0282C7.12596 25.8092 5.85963 25.8092 5.07858 25.0282L3.66437 26.4424ZM3.66437 20.7855C2.10227 22.3476 2.10227 24.8803 3.66437 26.4424L5.07858 25.0282C4.29754 24.2471 4.29754 22.9808 5.07858 22.1997L3.66437 20.7855ZM5.0927 19.3572L3.66437 20.7855L5.07858 22.1997L6.50691 20.7714L5.0927 19.3572ZM3.97636 18.2852C4.21251 19.0787 4.53187 19.8361 4.92419 20.5473L6.67542 19.5813C6.35147 18.9941 6.08802 18.3691 5.89327 17.7148L3.97636 18.2852ZM4.93482 17H3V19H4.93482V17ZM3 17C1.89543 17 1 16.1046 1 15H-1C-1 17.2091 0.790861 19 3 19V17ZM1 15C1 13.8954 1.89543 13 3 13V11C0.790861 11 -1 12.7909 -1 15H1ZM3 13H4.93482V11H3V13ZM4.88287 9.52826C4.5094 10.2175 4.20416 10.9493 3.97637 11.7148L5.89327 12.2852C6.08113 11.654 6.33294 11.0502 6.64129 10.4811L4.88287 9.52826ZM3.66421 9.32103L5.05497 10.7118L6.46919 9.29758L5.07843 7.90682L3.66421 9.32103ZM3.66421 3.66418C2.10212 5.22628 2.10212 7.75894 3.66421 9.32103L5.07843 7.90682C4.29738 7.12577 4.29738 5.85944 5.07843 5.07839L3.66421 3.66418ZM9.32107 3.66418C7.75897 2.10208 5.22631 2.10208 3.66421 3.66418L5.07843 5.07839C5.85948 4.29734 7.1258 4.29734 7.90685 5.07839L9.32107 3.66418ZM10.7118 5.05495L9.32107 3.66418L7.90685 5.07839L9.29762 6.46916L10.7118 5.05495ZM11.7148 3.97636C10.9494 4.20416 10.2175 4.50938 9.5283 4.88284L10.4812 6.64127C11.0502 6.33292 11.654 6.08113 12.2852 5.89327L11.7148 3.97636ZM11 3V4.93482H13V3H11ZM19.25 15C19.25 17.3472 17.3472 19.25 15 19.25V21.25C18.4518 21.25 21.25 18.4518 21.25 15H19.25ZM15 10.75C17.3472 10.75 19.25 12.6528 19.25 15H21.25C21.25 11.5482 18.4518 8.75 15 8.75V10.75ZM10.75 15C10.75 12.6528 12.6528 10.75 15 10.75V8.75C11.5482 8.75 8.75 11.5482 8.75 15H10.75ZM15 19.25C12.6528 19.25 10.75 17.3472 10.75 15H8.75C8.75 18.4518 11.5482 21.25 15 21.25V19.25Z" fill="#8C8C8C" mask="url(#path-1-inside-1_2899_3168)"/>
</svg>
