<svg width="40" height="40" viewBox="0 0 40 40" fill="none" xmlns="http://www.w3.org/2000/svg">
<rect x="0.5" y="0.5" width="39" height="39" rx="9.5" stroke="#8C8C8C"/>
<path d="M12.2585 12.2733C13.4843 11.0411 15.4718 11.0411 16.6976 12.2733L18.9171 14.5044L14.478 18.9666L12.2585 16.7355C11.0327 15.5033 11.0327 13.5055 12.2585 12.2733Z" stroke="#8C8C8C"/>
<path d="M27.0755 12.2733C25.8497 11.0411 23.8622 11.0411 22.6364 12.2733L20.4169 14.5044L24.856 18.9666L27.0755 16.7355C28.3013 15.5033 28.3013 13.5055 27.0755 12.2733Z" stroke="#8C8C8C"/>
<path d="M12.3653 27.06C11.1394 25.8278 11.1394 23.83 12.3652 22.5978L14.5848 20.3667L19.0239 24.8289L16.8044 27.06C15.5785 28.2922 13.5911 28.2922 12.3653 27.06Z" stroke="#8C8C8C"/>
<path d="M27.0752 27.06C28.301 25.8278 28.301 23.83 27.0752 22.5978L24.8556 20.3667L20.4165 24.8289L22.6361 27.06C23.8619 28.2922 25.8494 28.2922 27.0752 27.06Z" stroke="#8C8C8C"/>
<path d="M22.1469 19.6666C22.1469 21.0769 21.0102 22.2158 19.6135 22.2158C18.2168 22.2158 17.0801 21.0769 17.0801 19.6666C17.0801 18.2563 18.2168 17.1174 19.6135 17.1174C21.0102 17.1174 22.1469 18.2563 22.1469 19.6666Z" stroke="#8C8C8C"/>
</svg>
