<svg width="40" height="40" viewBox="0 0 40 40" fill="none" xmlns="http://www.w3.org/2000/svg">
<rect x="0.5" y="0.5" width="39" height="39" rx="9.5" fill="#252525" stroke="#8C8C8C"/>
<rect width="20" height="20" transform="translate(10 10.6667)" fill="#252525"/>
<path d="M21.5 24.6667C21.5 27.7043 19.0376 30.1667 16 30.1667C15.1492 30.1667 14.3448 29.9739 13.6269 29.63C13.2539 29.4513 12.821 29.4091 12.414 29.5322C11.9265 29.6796 11.5534 29.7358 11.2828 29.7263C11.0141 29.7169 10.8953 29.646 10.8407 29.5897C10.7871 29.5345 10.7204 29.4163 10.722 29.1499C10.7236 28.8804 10.7963 28.5083 10.9699 28.0201C11.1124 27.6191 11.091 27.1842 10.9301 26.8028C10.6533 26.1467 10.5 25.4253 10.5 24.6667C10.5 21.6292 12.9624 19.1667 16 19.1667C19.0376 19.1667 21.5 21.6292 21.5 24.6667Z" stroke="#8C8C8C"/>
<path fill-rule="evenodd" clip-rule="evenodd" d="M15.0005 18.7496C15.0002 18.722 15 18.6944 15 18.6667C15 14.8008 18.134 11.6667 22 11.6667C25.866 11.6667 29 14.8008 29 18.6667C29 19.7963 28.7332 20.8606 28.2601 21.8029C28.0101 22.3009 27.9609 22.883 28.1336 23.4203L29.0856 23.1143L28.1336 23.4203C28.324 24.0128 28.3768 24.4167 28.3638 24.6712C28.3576 24.793 28.3372 24.8607 28.3243 24.892C28.318 24.9071 28.3131 24.9146 28.3114 24.917C28.3099 24.9192 28.3092 24.9199 28.3087 24.9203L28.3087 24.9203C28.3081 24.9208 28.3046 24.9239 28.2956 24.9289C28.2863 24.9341 28.2698 24.942 28.2433 24.9505C28.1887 24.9681 28.0978 24.9863 27.9587 24.9892C27.6731 24.9952 27.2637 24.9357 26.7157 24.7749C26.19 24.6206 25.6296 24.6777 25.1499 24.9199C24.2043 25.3974 23.135 25.6667 22 25.6667C21.9723 25.6667 21.9447 25.6666 21.9171 25.6663C21.8598 26.0081 21.7736 26.3401 21.6611 26.6597C21.7735 26.6644 21.8865 26.6667 22 26.6667C23.2951 26.6667 24.5184 26.359 25.6006 25.8126C25.8582 25.6825 26.1572 25.6532 26.4341 25.7344C28.8369 26.4396 29.9231 25.7202 29.0856 23.1143C28.9942 22.8299 29.0197 22.5186 29.1538 22.2516C29.6952 21.1732 30 19.9556 30 18.6667C30 14.2485 26.4183 10.6667 22 10.6667C17.5817 10.6667 14 14.2485 14 18.6667C14 18.7803 14.0024 18.8933 14.007 19.0057C14.3267 18.8932 14.6587 18.8069 15.0005 18.7496Z" fill="#8C8C8C"/>
</svg>
